<svg xmlns="http://www.w3.org/2000/svg" width="20" height="20" viewBox="0 0 20 20">
    <path fill="#fff" d="M15.6 18.196c-.777.37-1.48.63-2.11.78-.63.15-1.31.224-2.042.224-.83 0-1.566-.107-2.205-.318-.64-.213-1.183-.516-1.635-.908-.45-.395-.764-.812-.938-1.254s-.26-1.086-.26-1.926V8.34H4.4V5.734c.714-.234 1.326-.57 1.835-1.01.51-.438.918-.965 1.227-1.58.308-.613.52-1.396.636-2.345h2.585v4.652h4.314V8.34h-4.314v4.718c0 1.066.056 1.752.168 2.055.112.303.32.545.623.725.403.244.863.367 1.38.367.92 0 1.837-.303 2.747-.908v2.9z"/>
</svg>
